<svg width="114" height="300" viewBox="0 0 114 300" version="1.1" xmlns="http://www.w3.org/2000/svg" xmlns:xlink="http://www.w3.org/1999/xlink">
<title>Vector</title>
<desc>Created using Figma</desc>
<g id="Canvas" transform="translate(233 607)">
<g id="Vector">
<use xlink:href="#path0_fill" transform="translate(-233 -607)" fill="#C4C4C4"/>
</g>
</g>
<defs>
<path id="path0_fill" d="M 81.337 0.603422C 46.6013 -4.82102 13.6066 26.3693 4.20143 92.4484C -4.01381 150.167 1.11105 238.167 8.52794 298.576C 8.60134 299.07 9.39325 300.671 11.2475 299.685C 49.3208 283.165 31.6439 220.168 32.5092 199.087C 32.9996 187.139 39.4316 184.047 43.1401 184.047C 46.8485 184.047 53.0293 186.143 53.0293 195.142C 65.8852 197.238 69.9645 182.321 69.9645 175.417C 69.9645 168.513 51.0514 131.282 47.7138 116.365C 44.3762 101.448 43.1401 75.0656 49.6917 54.4775C 56.2432 33.8895 73.3021 18.9724 85.7872 22.6709C 98.2723 26.3693 102.814 35.3689 97.9933 43.3822C 93.8777 50.223 85.3846 47.0807 83.4068 42.1494C 82.4427 39.7458 83.2325 36.2319 83.933 34.0128C 82.6968 34.0128 77.8758 33.6429 75.7744 37.4647C 72.7565 42.9531 72.9931 54.4775 85.7872 58.176C 102.846 63.1073 111.884 43.3822 113.106 37.4647C 114.226 32.0403 111.746 5.35222 81.337 0.603422Z"/>
</defs>
</svg>
