<svg width="115" height="302" viewBox="0 0 115 302" version="1.1" xmlns="http://www.w3.org/2000/svg" xmlns:xlink="http://www.w3.org/1999/xlink">
<title>Vector</title>
<desc>Created using Figma</desc>
<g id="Canvas" transform="translate(234 608)">
<g id="Vector">
<use xlink:href="#path0_fill" transform="translate(-233 -607)" fill="#C4C4C4"/>
<use xlink:href="#path1_stroke" transform="translate(-233 -607)"/>
</g>
</g>
<defs>
<path id="path0_fill" d="M 81.337 0.603422C 46.6013 -4.82102 13.6066 26.3693 4.20143 92.4484C -4.01381 150.167 1.11105 238.167 8.52794 298.576C 8.60134 299.07 9.39325 300.671 11.2475 299.685C 49.3208 283.165 31.6439 220.168 32.5092 199.087C 32.9996 187.139 39.4316 184.047 43.1401 184.047C 46.8485 184.047 53.0293 186.143 53.0293 195.142C 65.8852 197.238 69.9645 182.321 69.9645 175.417C 69.9645 168.513 51.0514 131.282 47.7138 116.365C 44.3762 101.448 43.1401 75.0656 49.6917 54.4775C 56.2432 33.8895 73.3021 18.9724 85.7872 22.6709C 98.2723 26.3693 102.814 35.3689 97.9933 43.3822C 93.8777 50.223 85.3846 47.0807 83.4068 42.1494C 82.4427 39.7458 83.2325 36.2319 83.933 34.0128C 82.6968 34.0128 77.8758 33.6429 75.7744 37.4647C 72.7565 42.9531 72.9931 54.4775 85.7872 58.176C 102.846 63.1073 111.884 43.3822 113.106 37.4647C 114.226 32.0403 111.746 5.35222 81.337 0.603422Z"/>
<path id="path1_stroke" d="M 4.20143 92.4484L 4.69644 92.5188L 4.20143 92.4484ZM 81.337 0.603422L 81.2599 1.09743L 81.337 0.603422ZM 113.106 37.4647L 113.596 37.5657L 113.596 37.5657L 113.106 37.4647ZM 85.7872 58.176L 85.6483 58.6563L 85.6483 58.6563L 85.7872 58.176ZM 75.7744 37.4647L 75.3363 37.2237L 75.3363 37.2237L 75.7744 37.4647ZM 83.933 34.0128L 84.4098 34.1633L 84.6151 33.5128L 83.933 33.5128L 83.933 34.0128ZM 83.4068 42.1494L 83.8708 41.9633L 83.8708 41.9633L 83.4068 42.1494ZM 97.9933 43.3822L 97.5649 43.1244L 97.5649 43.1244L 97.9933 43.3822ZM 85.7872 22.6709L 85.9292 22.1915L 85.9292 22.1915L 85.7872 22.6709ZM 49.6917 54.4775L 50.1681 54.6292L 50.1681 54.6292L 49.6917 54.4775ZM 47.7138 116.365L 48.2018 116.256L 48.2018 116.256L 47.7138 116.365ZM 53.0293 195.142L 52.5293 195.142L 52.5293 195.567L 52.9488 195.636L 53.0293 195.142ZM 32.5092 199.087L 32.0096 199.067L 32.0096 199.067L 32.5092 199.087ZM 11.2475 299.685L 11.0484 299.226L 11.0302 299.234L 11.0127 299.244L 11.2475 299.685ZM 8.52794 298.576L 8.03151 298.637L 8.03335 298.649L 8.52794 298.576ZM 4.69644 92.5188C 9.39016 59.5417 19.9629 35.3285 33.6428 20.0456C 47.3126 4.774 64.0825 -1.58505 81.2599 1.09743L 81.4142 0.10941C 63.8559 -2.63255 46.7606 3.89135 32.8977 19.3786C 19.0451 34.8545 8.41789 59.276 3.70642 92.3779L 4.69644 92.5188ZM 81.2599 1.09743C 96.3017 3.44642 104.394 11.2044 108.605 19.0179C 110.715 22.9337 111.855 26.8725 112.398 30.1658C 112.942 33.4707 112.879 36.0891 112.616 37.3636L 113.596 37.5657C 113.893 36.128 113.94 33.3763 113.384 30.0032C 112.827 26.6185 111.656 22.5713 109.485 18.5435C 105.134 10.4697 96.7816 2.50923 81.4142 0.10941L 81.2599 1.09743ZM 112.616 37.3636C 112.022 40.242 109.495 46.5704 105.014 51.5543C 100.549 56.5205 94.2105 60.0905 85.9261 57.6957L 85.6483 58.6563C 94.4228 61.1928 101.133 57.3659 105.757 52.2229C 110.366 47.0977 112.968 40.6049 113.596 37.5657L 112.616 37.3636ZM 85.9261 57.6957C 79.6804 55.8902 76.5556 52.2018 75.3278 48.3401C 74.0899 44.4467 74.7667 40.3349 76.2125 37.7056L 75.3363 37.2237C 73.7642 40.0828 73.0504 44.4775 74.3748 48.6431C 75.7093 52.8403 79.0998 56.7633 85.6483 58.6563L 85.9261 57.6957ZM 76.2125 37.7056C 77.1725 35.9598 78.7549 35.1574 80.2937 34.7921C 81.8442 34.4239 83.2834 34.5128 83.933 34.5128L 83.933 33.5128C 83.3464 33.5128 81.757 33.4168 80.0627 33.8191C 78.3566 34.2242 76.4777 35.1478 75.3363 37.2237L 76.2125 37.7056ZM 83.4562 33.8623C 83.1004 34.9894 82.7182 36.4561 82.5488 37.9558C 82.3805 39.4463 82.4158 41.022 82.9427 42.3355L 83.8708 41.9633C 83.4336 40.8732 83.3819 39.4901 83.5425 38.068C 83.7021 36.655 84.0651 35.2552 84.4098 34.1633L 83.4562 33.8623ZM 82.9427 42.3355C 84.0033 44.9799 86.7755 47.0973 89.8053 47.6716C 92.8768 48.2539 96.2465 47.2557 98.4217 43.64L 97.5649 43.1244C 95.6246 46.3496 92.6898 47.2006 89.9915 46.6891C 87.2513 46.1696 84.788 44.2502 83.8708 41.9633L 82.9427 42.3355ZM 98.4217 43.64C 100.919 39.4884 101.003 35.0429 98.8156 31.1629C 96.6395 27.3026 92.2539 24.065 85.9292 22.1915L 85.6452 23.1503C 91.8056 24.9752 95.9335 28.0866 97.9445 31.654C 99.9444 35.2018 99.8882 39.2627 97.5649 43.1244L 98.4217 43.64ZM 85.9292 22.1915C 79.4454 20.2708 71.8834 23.2025 65.1843 29.0912C 58.4672 34.9956 52.5167 43.9512 49.2152 54.3259L 50.1681 54.6292C 53.4182 44.4158 59.2729 35.6189 65.8445 29.8423C 72.4339 24.05 79.6439 21.3725 85.6452 23.1503L 85.9292 22.1915ZM 49.2152 54.3259C 42.6298 75.0202 43.8747 101.496 47.2259 116.474L 48.2018 116.256C 44.8778 101.4 43.6503 75.111 50.1681 54.6292L 49.2152 54.3259ZM 47.2259 116.474C 48.9074 123.99 54.4957 137.081 59.631 149.093C 62.2049 155.113 64.6696 160.872 66.4912 165.557C 67.402 167.899 68.1488 169.965 68.6673 171.656C 69.1908 173.363 69.4645 174.636 69.4645 175.417L 70.4645 175.417C 70.4645 174.472 70.1472 173.071 69.6234 171.363C 69.0945 169.638 68.3376 167.546 67.4232 165.194C 65.5943 160.49 63.1221 154.714 60.5505 148.699C 55.3949 136.64 49.8578 123.657 48.2018 116.256L 47.2259 116.474ZM 69.4645 175.417C 69.4645 178.798 68.4602 184.159 65.8904 188.395C 64.6089 190.508 62.9512 192.319 60.857 193.478C 58.7702 194.632 56.2191 195.156 53.1097 194.649L 52.9488 195.636C 56.2673 196.177 59.0472 195.622 61.341 194.353C 63.6273 193.088 65.4 191.132 66.7454 188.914C 69.4292 184.49 70.4645 178.94 70.4645 175.417L 69.4645 175.417ZM 53.5293 195.142C 53.5293 190.516 51.9339 187.591 49.7926 185.833C 47.6706 184.091 45.0749 183.547 43.1401 183.547L 43.1401 184.547C 44.9137 184.547 47.2626 185.05 49.1581 186.606C 51.0342 188.146 52.5293 190.769 52.5293 195.142L 53.5293 195.142ZM 43.1401 183.547C 41.1549 183.547 38.4858 184.372 36.2538 186.744C 34.0186 189.119 32.2584 193.005 32.0096 199.067L 33.0088 199.108C 33.2504 193.221 34.9514 189.587 36.982 187.429C 39.0157 185.268 41.4168 184.547 43.1401 184.547L 43.1401 183.547ZM 32.0096 199.067C 31.7914 204.384 32.7409 212.326 33.6787 221.427C 34.6192 230.555 35.5548 240.895 35.3315 251.086C 34.884 271.504 29.793 291.093 11.0484 299.226L 11.4465 300.144C 30.7753 291.757 35.8825 271.588 36.3312 251.108C 36.556 240.849 35.6142 230.455 34.6734 221.325C 33.73 212.169 32.7944 204.331 33.0088 199.108L 32.0096 199.067ZM 11.0127 299.244C 10.6118 299.457 10.3053 299.511 10.079 299.498C 9.85539 299.485 9.67497 299.405 9.52541 299.29C 9.20156 299.04 9.04277 298.639 9.02254 298.502L 8.03335 298.649C 8.08651 299.007 8.36037 299.654 8.91438 300.082C 9.20375 300.305 9.57355 300.471 10.0222 300.497C 10.4682 300.522 10.956 300.406 11.4823 300.127L 11.0127 299.244ZM 9.02422 298.515C 1.60872 238.118 -3.50927 150.171 4.69644 92.5188L 3.70642 92.3779C -4.51835 150.164 0.61337 238.217 8.03167 298.636L 9.02422 298.515Z"/>
</defs>
</svg>
